<svg width="24" height="25" viewBox="0 0 24 25" fill="none" xmlns="http://www.w3.org/2000/svg">
<g clip-path="url(#clip0_905_276)">
<path d="M5.78299 3.44482C6.46287 3.9514 6.7095 4.97788 6.7095 4.97788C7.04277 5.21784 7.30939 5.53778 7.48269 5.91105C7.58267 6.31098 7.58934 6.73757 7.49602 7.1375C7.49602 7.1375 8.01593 8.67056 7.76931 9.09715C7.52268 9.52374 6.48287 9.80369 6.48287 9.80369C6.19625 10.2903 5.71634 10.6369 5.16311 10.7568C4.48989 10.7968 3.96999 11.3701 3.99665 12.0433C3.99665 12.8698 4.82317 14.2229 4.82317 14.2229C4.82317 14.2229 5.68301 14.6428 5.80299 14.9494C5.89631 15.2827 5.94963 15.6226 5.96963 15.9692C5.96963 15.9692 6.78948 17.409 6.32956 18.2422C6.18292 18.5088 5.50304 18.7021 5.50304 18.7021L4.6632 19.9619" stroke="#4B4B4B" stroke-width="2" stroke-linecap="square" stroke-linejoin="round"/>
<path d="M19.9405 5.50431C19.014 5.89091 18.3341 6.11087 17.3543 6.33083C17.3543 6.33083 16.0212 7.81056 15.148 7.69058C14.2749 7.57061 13.3817 6.58412 13.3817 6.58412C13.3817 6.58412 13.4417 4.77111 13.1684 4.68446C12.8951 4.5978 12.1552 5.08438 11.6953 4.71778C11.2354 4.35118 11.502 3.31137 11.502 3.31137C11.502 3.31137 10.5022 2.99809 10.3756 2.66482C10.2489 2.33154 10.6222 1.84496 10.7155 1.55835" stroke="#4B4B4B" stroke-width="2" stroke-linecap="square" stroke-linejoin="round"/>
<path d="M19.5205 15.3962C14.3081 17.2559 15.7945 22.8416 11.3287 22.8416" stroke="#4B4B4B" stroke-width="2" stroke-linecap="square" stroke-linejoin="round"/>
<path d="M16.841 10.9304L16.8744 10.8571C16.2745 10.6571 15.6479 10.5238 15.0147 10.4771C14.6814 10.2638 14.3215 10.0905 13.9482 9.95723C13.5816 9.86391 12.3752 10.2638 12.3752 10.2638C12.3752 10.2638 10.9021 12.0435 10.9021 12.7167C10.9021 12.99 11.4353 13.4233 11.8219 13.8032" stroke="#4B4B4B" stroke-width="2" stroke-linecap="square" stroke-linejoin="round"/>
<path d="M22.8666 10.5903C21.3202 12.23 19.1606 13.1632 16.9077 13.1632C14.8481 13.1632 13.1817 14.8296 13.1817 16.8892C13.1817 18.9488 14.8481 20.6152 16.9077 20.6152C20.2004 20.6152 22.8666 17.949 22.8666 14.6563V10.597V10.5903Z" stroke="#4B4B4B" stroke-width="2" stroke-linecap="square" stroke-linejoin="round"/>
<path d="M21.7868 8.18408C19.6539 2.61174 13.415 -0.174423 7.84265 1.95853C2.27031 4.09148 -0.515854 10.3304 1.6171 15.9027C2.83021 19.0755 5.46307 21.4884 8.72249 22.4282" stroke="#4B4B4B" stroke-width="2" stroke-linecap="square" stroke-linejoin="round"/>
</g>
<defs>
<clipPath id="clip0_905_276">
<rect width="24" height="24" fill="white" transform="translate(0 0.0415039)"/>
</clipPath>
</defs>
</svg>
