<svg width="20" height="24" viewBox="0 0 20 24" fill="none" xmlns="http://www.w3.org/2000/svg">
<path d="M3.87837 21.9237L3.26073 21.2079L4.96356 17.7387L2.28521 17.2539L1.20001 14.2696L1.81765 13.6058L2.33139 9.57668L3.77446 8.45108L3.38772 7.45824L4.90584 5.64573L4.62299 4.47395L5.96217 4.70484L7.15127 5.62264L7.20322 4.39891H8.25955L7.58996 2.94429L8.18451 2.40746L7.84972 1.48966L10.124 1.24146L11.1688 4.5259L14.5687 3.01933L17.5299 5.57069L17.2182 7.20426L18.5054 12.5379L17.3452 12.4109L12.964 14.8122L13.5585 16.6997L16.2369 18.9682L14.3032 20.9077L14.511 22.3854L12.3752 22.0276L10.3664 22.6394L9.51792 22.4085L8.90028 22.8415L6.68371 22.0737L3.87259 21.9237H3.87837Z" stroke="#4B4B4B" stroke-width="2" stroke-linecap="square" stroke-linejoin="round"/>
</svg>
