<svg xmlns="http://www.w3.org/2000/svg" xmlns:xlink="http://www.w3.org/1999/xlink" width="210" zoomAndPan="magnify" viewBox="0 0 157.5 143.999998" height="192" preserveAspectRatio="xMidYMid meet" version="1.0"><defs><g/><clipPath id="634ea133d8"><path d="M 43 39 L 114 39 L 114 86.953125 L 43 86.953125 Z M 43 39 " clip-rule="nonzero"/></clipPath><clipPath id="693ebb9cea"><path d="M 18 0.226562 L 139 0.226562 L 139 60 L 18 60 Z M 18 0.226562 " clip-rule="nonzero"/></clipPath></defs><g clip-path="url(#634ea133d8)"><path fill="#000c79" d="M 105.40625 69.339844 L 91.894531 69.339844 C 86.921875 69.339844 82.117188 71.140625 78.382812 74.285156 C 74.636719 71.128906 69.84375 69.339844 64.871094 69.339844 L 51.371094 69.339844 L 51.371094 39.949219 L 43.140625 39.949219 L 43.140625 77.578125 L 64.882812 77.578125 C 68.953125 77.578125 72.664062 79.453125 75.089844 82.71875 L 78.394531 87.1875 L 81.695312 82.71875 C 84.125 79.453125 87.835938 77.578125 91.90625 77.578125 L 113.644531 77.578125 L 113.644531 39.949219 L 105.40625 39.949219 Z M 105.40625 69.339844 " fill-opacity="1" fill-rule="nonzero"/></g><path fill="#000c79" d="M 58.203125 49.386719 L 67.523438 49.386719 L 67.523438 58.707031 L 58.203125 58.707031 Z M 58.203125 49.386719 " fill-opacity="1" fill-rule="nonzero"/><path fill="#000c79" d="M 73.722656 49.386719 L 83.042969 49.386719 L 83.042969 58.707031 L 73.722656 58.707031 Z M 73.722656 49.386719 " fill-opacity="1" fill-rule="nonzero"/><path fill="#000c79" d="M 89.238281 49.386719 L 98.558594 49.386719 L 98.558594 58.707031 L 89.238281 58.707031 Z M 89.238281 49.386719 " fill-opacity="1" fill-rule="nonzero"/><g clip-path="url(#693ebb9cea)"><path fill="#000c79" d="M 128.671875 47.179688 L 128.671875 25.019531 L 138.4375 21.546875 L 78.382812 0.238281 L 18.328125 21.546875 L 78.382812 42.867188 L 120.433594 27.9375 L 120.433594 47.179688 C 118.667969 48.453125 117.511719 50.527344 117.511719 52.882812 C 117.511719 56.773438 120.660156 59.921875 124.550781 59.921875 C 128.441406 59.921875 131.589844 56.773438 131.589844 52.882812 C 131.589844 50.542969 130.4375 48.464844 128.671875 47.179688 Z M 128.671875 47.179688 " fill-opacity="1" fill-rule="nonzero"/></g><g fill="#01084b" fill-opacity="1"><g transform="translate(11.035274, 124.842601)"><g><path d="M 15.09375 0.40625 C 11.164062 0.40625 8.253906 -0.519531 6.359375 -2.375 C 4.472656 -4.238281 3.53125 -7.003906 3.53125 -10.671875 L 3.53125 -28.46875 L 9.03125 -28.46875 L 9.03125 -10.703125 C 9.03125 -8.628906 9.53125 -7.070312 10.53125 -6.03125 C 11.53125 -5 13.050781 -4.484375 15.09375 -4.484375 C 19.125 -4.484375 21.140625 -6.554688 21.140625 -10.703125 L 21.140625 -28.46875 L 26.65625 -28.46875 L 26.65625 -10.671875 C 26.65625 -7.003906 25.707031 -4.238281 23.8125 -2.375 C 21.914062 -0.519531 19.007812 0.40625 15.09375 0.40625 Z M 15.09375 0.40625 "/></g></g></g><g fill="#01084b" fill-opacity="1"><g transform="translate(41.20996, 124.842601)"><g><path d="M 3.09375 0 L 3.09375 -21.46875 L 8.28125 -21.46875 L 8.28125 -18.328125 L 8.6875 -18.21875 C 10.019531 -20.664062 12.1875 -21.890625 15.1875 -21.890625 C 17.664062 -21.890625 19.484375 -21.210938 20.640625 -19.859375 C 21.804688 -18.503906 22.390625 -16.535156 22.390625 -13.953125 L 22.390625 0 L 17 0 L 17 -13.296875 C 17 -14.722656 16.710938 -15.75 16.140625 -16.375 C 15.566406 -17.007812 14.648438 -17.328125 13.390625 -17.328125 C 11.847656 -17.328125 10.644531 -16.828125 9.78125 -15.828125 C 8.914062 -14.828125 8.484375 -13.257812 8.484375 -11.125 L 8.484375 0 Z M 3.09375 0 "/></g></g></g><g fill="#01084b" fill-opacity="1"><g transform="translate(66.362023, 124.842601)"><g><path d="M 5.78125 -24.046875 C 4.8125 -24.046875 4.019531 -24.335938 3.40625 -24.921875 C 2.800781 -25.515625 2.5 -26.28125 2.5 -27.21875 C 2.5 -28.144531 2.800781 -28.898438 3.40625 -29.484375 C 4.019531 -30.078125 4.8125 -30.375 5.78125 -30.375 C 6.425781 -30.375 7.003906 -30.238281 7.515625 -29.96875 C 8.023438 -29.695312 8.414062 -29.320312 8.6875 -28.84375 C 8.96875 -28.375 9.109375 -27.832031 9.109375 -27.21875 C 9.109375 -26.601562 8.96875 -26.054688 8.6875 -25.578125 C 8.414062 -25.097656 8.023438 -24.722656 7.515625 -24.453125 C 7.003906 -24.179688 6.425781 -24.046875 5.78125 -24.046875 Z M 3.09375 0 L 3.09375 -21.46875 L 8.484375 -21.46875 L 8.484375 0 Z M 3.09375 0 "/></g></g></g><g fill="#01084b" fill-opacity="1"><g transform="translate(77.925741, 124.842601)"><g><path d="M 14.703125 -28.46875 C 16.734375 -28.46875 18.472656 -28.09375 19.921875 -27.34375 C 21.367188 -26.59375 22.460938 -25.546875 23.203125 -24.203125 C 23.941406 -22.867188 24.3125 -21.3125 24.3125 -19.53125 C 24.3125 -17.75 23.941406 -16.1875 23.203125 -14.84375 C 22.460938 -13.507812 21.367188 -12.46875 19.921875 -11.71875 C 18.472656 -10.976562 16.734375 -10.609375 14.703125 -10.609375 L 9.328125 -10.609375 L 9.328125 0 L 3.703125 0 L 3.703125 -28.46875 Z M 13.953125 -15.0625 C 17.085938 -15.0625 18.65625 -16.550781 18.65625 -19.53125 C 18.65625 -22.507812 17.085938 -24 13.953125 -24 L 9.328125 -24 L 9.328125 -15.0625 Z M 13.953125 -15.0625 "/></g></g></g><g fill="#01084b" fill-opacity="1"><g transform="translate(103.934375, 124.842601)"><g><path d="M 3.09375 0 L 3.09375 -21.46875 L 8.328125 -21.46875 L 8.328125 -18.28125 L 8.734375 -18.203125 C 9.253906 -19.398438 9.9375 -20.273438 10.78125 -20.828125 C 11.625 -21.390625 12.648438 -21.671875 13.859375 -21.671875 C 15.078125 -21.671875 16.003906 -21.460938 16.640625 -21.046875 L 15.734375 -16.390625 L 15.328125 -16.3125 C 14.972656 -16.457031 14.632812 -16.5625 14.3125 -16.625 C 13.988281 -16.6875 13.59375 -16.71875 13.125 -16.71875 C 11.613281 -16.71875 10.460938 -16.1875 9.671875 -15.125 C 8.878906 -14.070312 8.484375 -12.378906 8.484375 -10.046875 L 8.484375 0 Z M 3.09375 0 "/></g></g></g><g fill="#01084b" fill-opacity="1"><g transform="translate(120.773803, 124.842601)"><g><path d="M 12.484375 0.40625 C 10.378906 0.40625 8.53125 -0.0234375 6.9375 -0.890625 C 5.351562 -1.753906 4.117188 -3.019531 3.234375 -4.6875 C 2.359375 -6.351562 1.921875 -8.367188 1.921875 -10.734375 C 1.921875 -13.085938 2.359375 -15.101562 3.234375 -16.78125 C 4.117188 -18.457031 5.351562 -19.726562 6.9375 -20.59375 C 8.53125 -21.457031 10.378906 -21.890625 12.484375 -21.890625 C 14.585938 -21.890625 16.429688 -21.457031 18.015625 -20.59375 C 19.609375 -19.726562 20.84375 -18.457031 21.71875 -16.78125 C 22.601562 -15.101562 23.046875 -13.085938 23.046875 -10.734375 C 23.046875 -8.367188 22.601562 -6.351562 21.71875 -4.6875 C 20.84375 -3.019531 19.609375 -1.753906 18.015625 -0.890625 C 16.429688 -0.0234375 14.585938 0.40625 12.484375 0.40625 Z M 12.484375 -4.171875 C 15.816406 -4.171875 17.484375 -6.359375 17.484375 -10.734375 C 17.484375 -13.003906 17.054688 -14.664062 16.203125 -15.71875 C 15.347656 -16.78125 14.109375 -17.3125 12.484375 -17.3125 C 9.148438 -17.3125 7.484375 -15.117188 7.484375 -10.734375 C 7.484375 -6.359375 9.148438 -4.171875 12.484375 -4.171875 Z M 12.484375 -4.171875 "/></g></g></g></svg>